<svg width="126" height="126" viewBox="0 0 126 126" fill="none" xmlns="http://www.w3.org/2000/svg">
<g id="Pruning 1">
<g id="Pruning">
<path id="Vector" d="M71.5264 55.5483L71.88 55.1947L91.5497 74.8647C91.55 74.865 91.5502 74.8652 91.5504 74.8655C93.4102 76.7156 94.8252 78.9642 95.6883 81.4414C96.5514 83.9186 96.8402 86.5595 96.5328 89.1646C96.4375 90.0214 96.1009 90.8335 95.5621 91.5063C95.0231 92.1794 94.3039 92.6855 93.4884 92.9657C93.488 92.9659 93.4875 92.966 93.487 92.9662L93.3247 92.4933C92.8891 92.6457 92.431 92.7237 91.9695 92.7242L71.5264 55.5483ZM71.5264 55.5483L71.88 55.1947L66.3754 49.6902V29.9438V29.9432C66.3722 27.1098 65.2453 24.3934 63.2418 22.3899C61.2383 20.3864 58.5219 19.2594 55.6886 19.2561H55.688H53.4893C53.0629 19.2561 52.6541 19.4255 52.3526 19.7269L52.3526 19.7269C52.0512 20.0284 51.8818 20.4372 51.8818 20.8635V44.9284L36.3039 29.3503C36.3039 29.3503 36.3038 29.3503 36.3038 29.3503C36.1546 29.201 35.9774 29.0825 35.7824 29.0017C35.5873 28.9209 35.3783 28.8793 35.1672 28.8793C34.956 28.8793 34.747 28.9209 34.552 29.0017C34.3569 29.0825 34.1798 29.201 34.0305 29.3502C34.0305 29.3503 34.0305 29.3503 34.0304 29.3503L32.4758 30.9049L32.4754 30.9053C30.4743 32.911 29.3504 35.6287 29.3504 38.462C29.3504 41.2953 30.4743 44.0129 32.4754 46.0187L32.4758 46.0191L50.3449 63.8882C50.345 63.8882 50.345 63.8882 50.345 63.8883C50.8846 64.4281 51.4799 64.9088 52.1208 65.3224L52.1208 92.1121C52.1208 92.1124 52.1208 92.1126 52.1208 92.1129C52.1141 94.7362 52.7037 97.3267 53.8451 99.6887C54.9865 102.051 56.6498 104.122 58.7094 105.747C59.3841 106.282 60.1959 106.616 61.0517 106.711C61.9077 106.806 62.773 106.657 63.5485 106.282C64.3239 105.908 64.978 105.322 65.4358 104.592C65.8935 103.863 66.1363 103.019 66.1363 102.158V69.272L88.7413 91.877C88.7417 91.8774 88.7422 91.8779 88.7426 91.8783M71.5264 55.5483L88.7426 91.8783M88.7426 91.8783L88.7429 91.8785L89.0964 91.525L88.7426 91.8783ZM51.8997 49.4927L51.8997 49.4927L35.1671 32.7602L34.7495 33.1777C33.3501 34.5803 32.5641 36.4808 32.5641 38.4621C32.5641 40.4434 33.35 42.3438 34.7493 43.7463C34.7494 43.7464 34.7495 43.7465 34.7495 43.7465L52.6183 61.6153C54.0197 63.0166 55.9204 63.8038 57.9022 63.8038C59.8841 63.8038 61.7847 63.0166 63.1861 61.6153L68.47 56.3313L60.8601 48.7216L51.8997 49.4927ZM51.8997 49.4927C52.2011 49.7941 52.6099 49.9634 53.0362 49.9635C53.4624 49.9635 53.8713 49.7943 54.1728 49.493L54.1729 49.4929M51.8997 49.4927L54.1729 49.4929M54.1729 49.4929L54.9444 48.7215L54.9681 48.6978M54.1729 49.4929L54.9681 48.6978M54.9681 48.6978C55.7509 47.9294 56.8043 47.4984 57.9021 47.4984C59.011 47.4984 60.0746 47.9382 60.8597 48.7212L54.9681 48.6978ZM63.1606 29.9443V46.4755L63.1331 46.448L63.1326 46.4475C62.0014 45.3193 60.5358 44.587 58.9544 44.3598C57.6442 44.1716 56.3126 44.3385 55.0966 44.8359V22.4709L55.6874 22.4709C55.6875 22.4709 55.6876 22.4709 55.6876 22.4709C57.6689 22.4733 59.5684 23.2614 60.9693 24.6624C62.3703 26.0634 63.1584 27.963 63.1606 29.9443ZM60.7066 103.228L60.7056 103.227C59.027 101.903 57.6712 100.215 56.7409 98.2895C55.8107 96.3643 55.3301 94.2529 55.3357 92.1147V92.1134V66.7081C57.7907 67.3122 60.3875 67.0306 62.6631 65.9021H62.7665L62.9215 66.0571L62.9214 102.158C62.9214 102.415 62.849 102.666 62.7125 102.884C62.576 103.101 62.381 103.276 62.1498 103.388C61.9185 103.5 61.6605 103.544 61.4052 103.516C61.15 103.487 60.9078 103.388 60.7066 103.228ZM93.339 88.7948L93.3388 88.7961C93.3094 89.0512 93.2086 89.2929 93.0481 89.4934C92.8876 89.6938 92.6739 89.845 92.4313 89.9294L92.5958 90.4016L92.4313 89.9295C92.1888 90.0139 91.9274 90.0284 91.6771 89.971L91.5655 90.4584L91.6771 89.971C91.4268 89.9137 91.1977 89.787 91.0161 89.6054L90.6625 89.9589L91.0161 89.6054L65.3794 63.9686L70.7435 58.6046L89.2776 77.1387L89.2785 77.1396C90.7944 78.6476 91.9476 80.4804 92.6511 82.4996C93.3545 84.5187 93.5897 86.6714 93.339 88.7948Z" fill="#285A43" stroke="#285A43"/>
<path id="Vector_2" d="M62.5835 56.3309C62.5834 55.248 62.2079 54.1987 61.5209 53.3617C60.8338 52.5245 59.8777 51.9514 58.8154 51.7401C57.7532 51.5288 56.6505 51.6923 55.6953 52.2029C54.7401 52.7135 53.9915 53.5394 53.5771 54.5401C53.1626 55.5407 53.108 56.6541 53.4224 57.6905C53.7368 58.727 54.4009 59.6223 55.3014 60.224C56.202 60.8257 57.2833 61.0965 58.3612 60.9903C59.4386 60.8842 60.4459 60.4079 61.2116 59.6425C61.6479 59.2086 61.9938 58.6923 62.2293 58.1238C62.4647 57.5554 62.5851 56.946 62.5835 56.3309ZM62.5835 56.3309C62.5835 56.3306 62.5835 56.3304 62.5835 56.3302L62.0835 56.3316L62.5835 56.3316C62.5835 56.3313 62.5835 56.3311 62.5835 56.3309ZM58.94 57.3675L58.9391 57.3684C58.6991 57.6083 58.3834 57.7576 58.0458 57.7909C57.7081 57.8241 57.3693 57.7392 57.0872 57.5507C56.8051 57.3622 56.5971 57.0817 56.4986 56.757C56.4002 56.4323 56.4173 56.0835 56.5472 55.77C56.6771 55.4565 56.9116 55.1978 57.2109 55.0379C57.5101 54.8779 57.8556 54.8267 58.1883 54.893C58.5211 54.9592 58.8206 55.1388 59.0359 55.4011C59.2511 55.6634 59.3687 55.9922 59.3687 56.3315L59.3687 56.3329C59.3692 56.5251 59.3316 56.7155 59.258 56.8931L59.7199 57.0845L59.258 56.8931C59.1844 57.0707 59.0764 57.2318 58.94 57.3675Z" fill="#285A43" stroke="#285A43"/>
</g>
</g>
</svg>
