<svg width="258" height="228" viewBox="0 0 258 228" fill="none" xmlns="http://www.w3.org/2000/svg">
<g opacity="0.05" clip-path="url(#clip0_301_1819)">
<mask id="path-1-inside-1_301_1819" fill="white">
<path d="M209.355 68.0757C216.277 68.0357 223.065 66.1649 229.03 62.6533C233.533 60.104 237.466 56.6583 240.586 52.5289C243.705 48.3996 245.944 43.6745 247.166 38.6455C247.416 37.5356 247.237 36.372 246.664 35.3889C246.091 34.4058 245.167 33.6761 244.078 33.3467C239.101 31.9296 233.886 31.5484 228.755 32.2265C223.625 32.9045 218.688 34.6276 214.25 37.2891C210.346 39.5579 206.854 42.4712 203.923 45.9055C203.066 41.4726 201.464 37.2167 199.187 33.3184C196.637 28.8146 193.192 24.8815 189.062 21.7621C184.933 18.6426 180.208 16.4032 175.179 15.1821C174.069 14.9317 172.905 15.1109 171.922 15.6838C170.939 16.2566 170.209 17.1806 169.88 18.2697C168.463 23.2471 168.082 28.4621 168.76 33.5926C169.438 38.7231 171.161 43.66 173.823 48.0983C178.222 55.7862 185.138 61.7211 193.405 64.9011C191.943 72.8293 189.683 86.7786 187.807 105.705C186.189 102.757 184.275 99.9815 182.095 97.4211C173.554 87.3942 161.603 81.3322 149.305 80.7888C148.168 80.7392 147.055 81.1218 146.189 81.8595C145.323 82.5971 144.768 83.6353 144.636 84.7653C143.216 96.9938 147.3 109.757 155.84 119.783C163.339 128.768 173.938 134.608 185.538 136.149C185.004 146.604 184.657 158.162 184.638 170.644C182.92 168.14 180.976 165.799 178.831 163.65C169.518 154.337 157.127 149.257 144.818 149.687C143.681 149.728 142.601 150.198 141.797 151.002C140.992 151.807 140.522 152.886 140.482 154.024C140.042 166.325 145.131 178.723 154.444 188.036C162.619 196.377 173.622 201.352 185.284 201.98C185.658 210.706 186.218 219.724 186.964 229.035H73.0358C73.7968 219.735 74.3568 210.717 74.7158 201.98C86.3777 201.352 97.3809 196.377 105.556 188.036C114.869 178.723 119.959 166.325 119.519 154.024C119.478 152.886 119.008 151.807 118.204 151.002C117.399 150.198 116.319 149.728 115.182 149.687C102.881 149.256 90.483 154.337 81.1695 163.65C79.024 165.799 77.0802 168.14 75.3626 170.644C75.3434 158.162 74.9963 146.604 74.4618 136.149C86.0623 134.608 96.6614 128.768 104.16 119.784C112.701 109.757 116.784 96.9937 115.364 84.7656C115.233 83.6351 114.679 82.5962 113.813 81.8583C112.946 81.1204 111.833 80.7383 110.696 80.7891C98.3978 81.3325 86.4456 87.3945 77.9056 97.4214C75.7254 99.9818 73.8115 102.757 72.1934 105.705C70.3176 86.7789 68.0576 72.8296 66.5956 64.9014C74.8624 61.7214 81.7789 55.7865 86.1775 48.0986C88.839 43.6603 90.562 38.7233 91.2401 33.5927C91.9182 28.4622 91.537 23.2471 90.12 18.2697C89.7909 17.1804 89.0613 16.2563 88.0781 15.6833C87.095 15.1104 85.9312 14.9312 84.8212 15.1818C79.7922 16.4029 75.067 18.6423 70.9377 21.7618C66.8083 24.8812 63.3626 28.8143 60.8134 33.3181C58.5355 37.2164 56.9341 41.4723 56.0771 45.9052C53.1458 42.4709 49.6543 39.5576 45.7504 37.2888C41.3121 34.6274 36.3752 32.9044 31.2447 32.2263C26.1142 31.5482 20.8992 31.9295 15.9218 33.3464C14.8327 33.6758 13.9088 34.4055 13.336 35.3886C12.7631 36.3717 12.5839 37.5353 12.8344 38.6452C14.0554 43.6742 16.2948 48.3994 19.4141 52.5288C22.5334 56.6582 26.4664 60.104 30.97 62.6533C36.9348 66.1651 43.7227 68.0359 50.6443 68.0757C53.0753 68.0737 55.4996 67.822 57.8791 67.3247C59.2812 75.0586 61.3783 88.1688 63.1305 105.519C61.2395 103.196 59.1422 101.05 56.8641 99.106C46.8372 90.566 34.0774 86.4829 21.8455 87.9019C20.7152 88.033 19.6766 88.5875 18.9387 89.4537C18.2009 90.3199 17.8186 91.4335 17.8689 92.5703C18.4129 104.869 24.4754 116.82 34.5018 125.36C42.8942 132.641 53.5974 136.71 64.7073 136.841C64.9665 136.841 65.2253 136.824 65.4844 136.819C66.0158 147.277 66.3566 158.855 66.363 171.368C64.5269 168.59 62.4155 166.004 60.0608 163.65C50.7483 154.337 38.3562 149.257 26.0481 149.687C24.911 149.728 23.8315 150.198 23.0269 151.003C22.2223 151.807 21.7524 152.887 21.7117 154.024C21.2717 166.325 26.3611 178.723 35.6746 188.037C43.6587 196.175 54.338 201.12 65.7087 201.943C65.3305 210.677 64.7619 219.708 64.0027 229.036H38.5151C37.3834 229.036 36.2932 229.462 35.4618 230.23C34.6304 230.998 34.119 232.051 34.0293 233.179L31.8242 260.912C29.1794 293.565 39.1627 325.988 59.7163 351.497L72.3677 367.247C72.7895 367.771 73.3236 368.195 73.9308 368.486C74.538 368.777 75.2027 368.928 75.876 368.928H184.124C184.797 368.928 185.462 368.777 186.069 368.486C186.676 368.195 187.211 367.771 187.632 367.247L200.284 351.497C220.837 325.987 230.821 293.564 228.176 260.912L225.971 233.18C225.881 232.051 225.37 230.998 224.538 230.231C223.707 229.463 222.617 229.036 221.485 229.036H195.996C195.226 219.743 194.656 210.713 194.288 201.944C205.66 201.12 216.34 196.175 224.325 188.037C233.639 178.723 238.728 166.326 238.288 154.024C238.247 152.887 237.778 151.808 236.973 151.003C236.168 150.199 235.089 149.729 233.952 149.688C221.651 149.256 209.252 154.338 199.939 163.65C197.585 166.004 195.475 168.588 193.639 171.364C193.651 159.031 193.993 147.476 194.543 136.82C194.793 136.825 195.042 136.842 195.292 136.842C206.402 136.71 217.105 132.642 225.498 125.361C235.524 116.82 241.586 104.869 242.13 92.5709C242.181 91.4341 241.798 90.3205 241.061 89.4543C240.323 88.5881 239.284 88.0336 238.154 87.9025C225.926 86.4816 213.162 90.5665 203.135 99.1066C200.878 101.033 198.798 103.159 196.92 105.457C198.672 88.0985 200.744 75.0353 202.13 67.3273C204.507 67.8232 206.928 68.074 209.355 68.0757ZM87.5337 170.014C93.6386 163.775 101.704 159.826 110.377 158.83C109.288 167.475 105.353 175.511 99.1915 181.672C93.0303 187.834 84.9936 191.769 76.3486 192.857C77.3454 184.185 81.2947 176.119 87.5337 170.014ZM84.7568 103.257C90.345 96.551 98.0697 91.9708 106.635 90.2852C106.239 98.9894 102.958 107.314 97.3081 113.948C91.6582 120.581 83.9612 125.145 75.4307 126.92C75.7318 118.196 79.0248 109.841 84.7568 103.257ZM68.59 37.8497C71.7444 32.3137 76.597 27.9401 82.43 25.3761C83.0125 31.7114 81.604 38.0706 78.4007 43.5674C75.1975 49.0642 70.3591 53.4247 64.56 56.0411C63.9152 49.7019 65.3282 43.3235 68.59 37.8497ZM35.5017 54.8771C29.9658 51.7223 25.5924 46.8694 23.0285 41.0362C29.3638 40.4538 35.7229 41.8624 41.2196 45.0657C46.7163 48.2689 51.0767 53.1072 53.6931 58.9062C47.3539 59.5524 40.9753 58.1397 35.5017 54.8771ZM40.3381 118.509C33.6317 112.921 29.0514 105.196 27.3659 96.631C36.0702 97.0264 44.3953 100.308 51.0285 105.958C57.6617 111.608 62.2257 119.305 64.0007 127.835C55.2765 127.534 46.9217 124.241 40.3381 118.509ZM42.0393 181.673C35.8002 175.567 31.8509 167.502 30.854 158.83C39.499 159.918 47.5357 163.853 53.6969 170.014C59.8581 176.175 63.7932 184.212 64.8818 192.857C56.2097 191.861 48.1444 187.912 42.0393 181.673ZM193.267 345.861L181.967 359.928H78.0332L66.7332 345.861C48.5203 323.255 39.2061 294.767 40.5464 265.769H219.454C220.794 294.767 211.48 323.255 193.267 345.861ZM218.818 256.769H41.182L42.6714 238.036H68.13H68.1409H68.1461H191.854H191.859H191.87H217.329L218.818 256.769ZM208.972 105.958C215.555 100.225 223.91 96.9321 232.635 96.631C230.86 105.162 226.296 112.859 219.663 118.509C213.029 124.159 204.704 127.44 196 127.835C197.685 119.27 202.266 111.546 208.972 105.958ZM218.781 45.0655C224.255 41.804 230.633 40.3914 236.972 41.0367C234.356 46.8358 229.995 51.6741 224.498 54.8773C219.002 58.0804 212.643 59.4887 206.307 58.9059C208.871 53.0728 213.245 48.2201 218.781 45.0655ZM181.599 43.5675C178.338 38.0936 176.925 31.7152 177.57 25.376C183.369 27.9925 188.207 32.353 191.411 37.8497C194.614 43.3465 196.023 49.7057 195.44 56.041C189.607 53.4773 184.754 49.1038 181.599 43.5675ZM162.692 113.948C156.96 107.364 153.667 99.009 153.365 90.2849C161.896 92.0597 169.593 96.6236 175.243 103.257C180.893 109.89 184.174 118.215 184.569 126.92C176.004 125.234 168.28 120.654 162.692 113.948ZM160.809 181.672C154.57 175.567 150.621 167.502 149.624 158.83C158.268 159.918 166.305 163.853 172.466 170.014C178.628 176.175 182.563 184.212 183.651 192.857C174.979 191.861 166.914 187.911 160.809 181.672ZM206.303 170.014C212.408 163.775 220.474 159.826 229.146 158.83C228.057 167.475 224.122 175.511 217.961 181.672C211.8 187.833 203.763 191.769 195.118 192.857C196.115 184.185 200.064 176.119 206.303 170.014Z"/>
</mask>
<path d="M209.355 68.0757C216.277 68.0357 223.065 66.1649 229.03 62.6533C233.533 60.104 237.466 56.6583 240.586 52.5289C243.705 48.3996 245.944 43.6745 247.166 38.6455C247.416 37.5356 247.237 36.372 246.664 35.3889C246.091 34.4058 245.167 33.6761 244.078 33.3467C239.101 31.9296 233.886 31.5484 228.755 32.2265C223.625 32.9045 218.688 34.6276 214.25 37.2891C210.346 39.5579 206.854 42.4712 203.923 45.9055C203.066 41.4726 201.464 37.2167 199.187 33.3184C196.637 28.8146 193.192 24.8815 189.062 21.7621C184.933 18.6426 180.208 16.4032 175.179 15.1821C174.069 14.9317 172.905 15.1109 171.922 15.6838C170.939 16.2566 170.209 17.1806 169.88 18.2697C168.463 23.2471 168.082 28.4621 168.76 33.5926C169.438 38.7231 171.161 43.66 173.823 48.0983C178.222 55.7862 185.138 61.7211 193.405 64.9011C191.943 72.8293 189.683 86.7786 187.807 105.705C186.189 102.757 184.275 99.9815 182.095 97.4211C173.554 87.3942 161.603 81.3322 149.305 80.7888C148.168 80.7392 147.055 81.1218 146.189 81.8595C145.323 82.5971 144.768 83.6353 144.636 84.7653C143.216 96.9938 147.3 109.757 155.84 119.783C163.339 128.768 173.938 134.608 185.538 136.149C185.004 146.604 184.657 158.162 184.638 170.644C182.92 168.14 180.976 165.799 178.831 163.65C169.518 154.337 157.127 149.257 144.818 149.687C143.681 149.728 142.601 150.198 141.797 151.002C140.992 151.807 140.522 152.886 140.482 154.024C140.042 166.325 145.131 178.723 154.444 188.036C162.619 196.377 173.622 201.352 185.284 201.98C185.658 210.706 186.218 219.724 186.964 229.035H73.0358C73.7968 219.735 74.3568 210.717 74.7158 201.98C86.3777 201.352 97.3809 196.377 105.556 188.036C114.869 178.723 119.959 166.325 119.519 154.024C119.478 152.886 119.008 151.807 118.204 151.002C117.399 150.198 116.319 149.728 115.182 149.687C102.881 149.256 90.483 154.337 81.1695 163.65C79.024 165.799 77.0802 168.14 75.3626 170.644C75.3434 158.162 74.9963 146.604 74.4618 136.149C86.0623 134.608 96.6614 128.768 104.16 119.784C112.701 109.757 116.784 96.9937 115.364 84.7656C115.233 83.6351 114.679 82.5962 113.813 81.8583C112.946 81.1204 111.833 80.7383 110.696 80.7891C98.3978 81.3325 86.4456 87.3945 77.9056 97.4214C75.7254 99.9818 73.8115 102.757 72.1934 105.705C70.3176 86.7789 68.0576 72.8296 66.5956 64.9014C74.8624 61.7214 81.7789 55.7865 86.1775 48.0986C88.839 43.6603 90.562 38.7233 91.2401 33.5927C91.9182 28.4622 91.537 23.2471 90.12 18.2697C89.7909 17.1804 89.0613 16.2563 88.0781 15.6833C87.095 15.1104 85.9312 14.9312 84.8212 15.1818C79.7922 16.4029 75.067 18.6423 70.9377 21.7618C66.8083 24.8812 63.3626 28.8143 60.8134 33.3181C58.5355 37.2164 56.9341 41.4723 56.0771 45.9052C53.1458 42.4709 49.6543 39.5576 45.7504 37.2888C41.3121 34.6274 36.3752 32.9044 31.2447 32.2263C26.1142 31.5482 20.8992 31.9295 15.9218 33.3464C14.8327 33.6758 13.9088 34.4055 13.336 35.3886C12.7631 36.3717 12.5839 37.5353 12.8344 38.6452C14.0554 43.6742 16.2948 48.3994 19.4141 52.5288C22.5334 56.6582 26.4664 60.104 30.97 62.6533C36.9348 66.1651 43.7227 68.0359 50.6443 68.0757C53.0753 68.0737 55.4996 67.822 57.8791 67.3247C59.2812 75.0586 61.3783 88.1688 63.1305 105.519C61.2395 103.196 59.1422 101.05 56.8641 99.106C46.8372 90.566 34.0774 86.4829 21.8455 87.9019C20.7152 88.033 19.6766 88.5875 18.9387 89.4537C18.2009 90.3199 17.8186 91.4335 17.8689 92.5703C18.4129 104.869 24.4754 116.82 34.5018 125.36C42.8942 132.641 53.5974 136.71 64.7073 136.841C64.9665 136.841 65.2253 136.824 65.4844 136.819C66.0158 147.277 66.3566 158.855 66.363 171.368C64.5269 168.59 62.4155 166.004 60.0608 163.65C50.7483 154.337 38.3562 149.257 26.0481 149.687C24.911 149.728 23.8315 150.198 23.0269 151.003C22.2223 151.807 21.7524 152.887 21.7117 154.024C21.2717 166.325 26.3611 178.723 35.6746 188.037C43.6587 196.175 54.338 201.12 65.7087 201.943C65.3305 210.677 64.7619 219.708 64.0027 229.036H38.5151C37.3834 229.036 36.2932 229.462 35.4618 230.23C34.6304 230.998 34.119 232.051 34.0293 233.179L31.8242 260.912C29.1794 293.565 39.1627 325.988 59.7163 351.497L72.3677 367.247C72.7895 367.771 73.3236 368.195 73.9308 368.486C74.538 368.777 75.2027 368.928 75.876 368.928H184.124C184.797 368.928 185.462 368.777 186.069 368.486C186.676 368.195 187.211 367.771 187.632 367.247L200.284 351.497C220.837 325.987 230.821 293.564 228.176 260.912L225.971 233.18C225.881 232.051 225.37 230.998 224.538 230.231C223.707 229.463 222.617 229.036 221.485 229.036H195.996C195.226 219.743 194.656 210.713 194.288 201.944C205.66 201.12 216.34 196.175 224.325 188.037C233.639 178.723 238.728 166.326 238.288 154.024C238.247 152.887 237.778 151.808 236.973 151.003C236.168 150.199 235.089 149.729 233.952 149.688C221.651 149.256 209.252 154.338 199.939 163.65C197.585 166.004 195.475 168.588 193.639 171.364C193.651 159.031 193.993 147.476 194.543 136.82C194.793 136.825 195.042 136.842 195.292 136.842C206.402 136.71 217.105 132.642 225.498 125.361C235.524 116.82 241.586 104.869 242.13 92.5709C242.181 91.4341 241.798 90.3205 241.061 89.4543C240.323 88.5881 239.284 88.0336 238.154 87.9025C225.926 86.4816 213.162 90.5665 203.135 99.1066C200.878 101.033 198.798 103.159 196.92 105.457C198.672 88.0985 200.744 75.0353 202.13 67.3273C204.507 67.8232 206.928 68.074 209.355 68.0757ZM87.5337 170.014C93.6386 163.775 101.704 159.826 110.377 158.83C109.288 167.475 105.353 175.511 99.1915 181.672C93.0303 187.834 84.9936 191.769 76.3486 192.857C77.3454 184.185 81.2947 176.119 87.5337 170.014ZM84.7568 103.257C90.345 96.551 98.0697 91.9708 106.635 90.2852C106.239 98.9894 102.958 107.314 97.3081 113.948C91.6582 120.581 83.9612 125.145 75.4307 126.92C75.7318 118.196 79.0248 109.841 84.7568 103.257ZM68.59 37.8497C71.7444 32.3137 76.597 27.9401 82.43 25.3761C83.0125 31.7114 81.604 38.0706 78.4007 43.5674C75.1975 49.0642 70.3591 53.4247 64.56 56.0411C63.9152 49.7019 65.3282 43.3235 68.59 37.8497ZM35.5017 54.8771C29.9658 51.7223 25.5924 46.8694 23.0285 41.0362C29.3638 40.4538 35.7229 41.8624 41.2196 45.0657C46.7163 48.2689 51.0767 53.1072 53.6931 58.9062C47.3539 59.5524 40.9753 58.1397 35.5017 54.8771ZM40.3381 118.509C33.6317 112.921 29.0514 105.196 27.3659 96.631C36.0702 97.0264 44.3953 100.308 51.0285 105.958C57.6617 111.608 62.2257 119.305 64.0007 127.835C55.2765 127.534 46.9217 124.241 40.3381 118.509ZM42.0393 181.673C35.8002 175.567 31.8509 167.502 30.854 158.83C39.499 159.918 47.5357 163.853 53.6969 170.014C59.8581 176.175 63.7932 184.212 64.8818 192.857C56.2097 191.861 48.1444 187.912 42.0393 181.673ZM193.267 345.861L181.967 359.928H78.0332L66.7332 345.861C48.5203 323.255 39.2061 294.767 40.5464 265.769H219.454C220.794 294.767 211.48 323.255 193.267 345.861ZM218.818 256.769H41.182L42.6714 238.036H68.13H68.1409H68.1461H191.854H191.859H191.87H217.329L218.818 256.769ZM208.972 105.958C215.555 100.225 223.91 96.9321 232.635 96.631C230.86 105.162 226.296 112.859 219.663 118.509C213.029 124.159 204.704 127.44 196 127.835C197.685 119.27 202.266 111.546 208.972 105.958ZM218.781 45.0655C224.255 41.804 230.633 40.3914 236.972 41.0367C234.356 46.8358 229.995 51.6741 224.498 54.8773C219.002 58.0804 212.643 59.4887 206.307 58.9059C208.871 53.0728 213.245 48.2201 218.781 45.0655ZM181.599 43.5675C178.338 38.0936 176.925 31.7152 177.57 25.376C183.369 27.9925 188.207 32.353 191.411 37.8497C194.614 43.3465 196.023 49.7057 195.44 56.041C189.607 53.4773 184.754 49.1038 181.599 43.5675ZM162.692 113.948C156.96 107.364 153.667 99.009 153.365 90.2849C161.896 92.0597 169.593 96.6236 175.243 103.257C180.893 109.89 184.174 118.215 184.569 126.92C176.004 125.234 168.28 120.654 162.692 113.948ZM160.809 181.672C154.57 175.567 150.621 167.502 149.624 158.83C158.268 159.918 166.305 163.853 172.466 170.014C178.628 176.175 182.563 184.212 183.651 192.857C174.979 191.861 166.914 187.911 160.809 181.672ZM206.303 170.014C212.408 163.775 220.474 159.826 229.146 158.83C228.057 167.475 224.122 175.511 217.961 181.672C211.8 187.833 203.763 191.769 195.118 192.857C196.115 184.185 200.064 176.119 206.303 170.014Z" fill="#121212" stroke="#F8F8F8" stroke-width="4" mask="url(#path-1-inside-1_301_1819)"/>
</g>
<defs>
<clipPath id="clip0_301_1819">
<rect width="258" height="228" fill="white"/>
</clipPath>
</defs>
</svg>
